<svg width="560" height="216" viewBox="0 0 560 216" fill="none" xmlns="http://www.w3.org/2000/svg">
<mask id="mask0_4_6" style="mask-type:alpha" maskUnits="userSpaceOnUse" x="15" y="37" width="529" height="130">
<path d="M93.5813 151.403C93.5813 155.711 92.0216 159.424 88.9022 162.544C85.9314 165.515 82.2921 167 77.9844 167H15.5969V151.403H75.7563V120.209H31.1938C26.886 120.209 23.1725 118.724 20.0531 115.753C17.0823 112.634 15.5969 108.92 15.5969 104.612V73.4187C15.5969 69.111 17.0823 65.4718 20.0531 62.5009C23.1725 59.3816 26.886 57.8219 31.1938 57.8219H93.5813V73.4187H33.4219V104.612H77.9844C82.2921 104.612 85.9314 106.172 88.9022 109.292C92.0216 112.262 93.5813 115.902 93.5813 120.209V151.403ZM236.233 89.0156L214.843 167H190.334L178.302 113.748H176.074L163.597 167H139.087L118.143 89.0156H134.854L149.337 154.077H153.793L169.835 89.0156H185.432L200.583 154.077H205.04L219.523 89.0156H236.233ZM276.418 75.6469H260.821V57.8219H276.418V75.6469ZM276.418 167H260.821V100.156L276.418 84.5594V167ZM358.85 167H327.656C323.349 167 319.635 165.515 316.516 162.544C313.545 159.424 312.059 155.711 312.059 151.403V102.384H289.778L303.147 89.0156H312.059V73.4187L327.656 57.8219V89.0156H358.85V102.384H327.656V153.631H358.85V167ZM447.992 89.0156L434.401 102.384H396.746V153.631H443.536V167H396.746C392.438 167 388.724 165.515 385.605 162.544C382.634 159.424 381.149 155.711 381.149 151.403V104.612C381.149 100.305 382.634 96.6655 385.605 93.6947C388.724 90.5753 392.438 89.0156 396.746 89.0156H447.992ZM543.828 167H528.231V102.384H481.44V167H465.843V53.3656L481.44 37.7687V100.156L492.581 89.0156H528.231C532.539 89.0156 536.178 90.5753 539.149 93.6947C542.268 96.6655 543.828 100.305 543.828 104.612V167Z" fill="black"/>
</mask>
<g mask="url(#mask0_4_6)">
<rect x="-49" width="668" height="250" fill="url(#paint0_linear_4_6)"/>
</g>
<defs>
<linearGradient id="paint0_linear_4_6" x1="68.3731" y1="2.83442e-05" x2="501.627" y2="250" gradientUnits="userSpaceOnUse">
<stop stop-color="#E8322A"/>
<stop offset="1" stop-color="#FF726B"/>
</linearGradient>
</defs>
</svg>
